<svg xmlns="http://www.w3.org/2000/svg" width="32" height="32" viewBox="0 0 32 32" fill="none"><path d="M31.66 17.1061C31.8354 16.902 31.9485 16.652 31.986 16.3856C32.0234 16.1192 31.9837 15.8477 31.8714 15.6032C31.7592 15.3587 31.5791 15.1516 31.3526 15.0064C31.1261 14.8613 30.8628 14.7841 30.5938 14.7842H9.96875C9.60464 14.7841 9.25467 14.9252 8.99248 15.1778C8.73028 15.4305 8.57631 15.775 8.56295 16.1388C8.54959 16.5027 8.67789 16.8576 8.92085 17.1288C9.1638 17.4 9.50248 17.5664 9.86563 17.5929L7.96063 18.5542C7.82323 18.195 7.56935 17.8923 7.23959 17.6944C6.90982 17.4966 6.52323 17.415 6.14165 17.4628C5.76007 17.5106 5.40554 17.685 5.13478 17.9581C4.86402 18.2312 4.69266 18.5872 4.64813 18.9692H0.46875C0.34443 18.9692 0.225201 19.0186 0.137294 19.1065C0.049386 19.1944 0 19.3136 0 19.4379L0 26.9379C0 27.0623 0.049386 27.1815 0.137294 27.2694C0.225201 27.3573 0.34443 27.4067 0.46875 27.4067H7.60563C7.72995 27.4067 7.84917 27.3573 7.93708 27.2694C8.02499 27.1815 8.07438 27.0623 8.07438 26.9379V26.8592L11.5 25.7048C11.7964 25.6048 12.1149 25.5898 12.4194 25.6617L18.0944 27.0004C18.7648 27.1592 19.4663 27.126 20.1187 26.9048L25.8687 24.9623C26.4726 24.7573 27.0131 24.3995 27.4375 23.9236C27.4418 23.919 27.4458 23.9142 27.4494 23.9092L31.6875 18.7611C31.8713 18.5393 31.9743 18.2617 31.9797 17.9737C31.985 17.6857 31.8924 17.4045 31.7169 17.1761C31.7 17.1517 31.68 17.1286 31.66 17.1061ZM0.9375 19.9067H4.63688V26.4692H3.25563V24.2192C3.25563 24.0949 3.20624 23.9756 3.11833 23.8877C3.03042 23.7998 2.9112 23.7504 2.78688 23.7504C2.66255 23.7504 2.54333 23.7998 2.45542 23.8877C2.36751 23.9756 2.31813 24.0949 2.31813 24.2192V26.4692H0.9375V19.9067ZM15.8313 20.0036H17.6931C17.9768 20.0034 18.2558 19.9311 18.5039 19.7934C18.7519 19.6556 18.9608 19.457 19.1108 19.2162C19.2609 18.9755 19.3472 18.7005 19.3616 18.4171C19.376 18.1338 19.318 17.8514 19.1931 17.5967H29.0462L24.2181 21.2142L15.8156 20.9311C15.7547 20.93 15.6946 20.917 15.6388 20.8928C15.5829 20.8685 15.5323 20.8335 15.49 20.7897C15.4477 20.7459 15.4144 20.6942 15.392 20.6376C15.3696 20.5809 15.3587 20.5204 15.3597 20.4595C15.3607 20.3986 15.3737 20.3385 15.398 20.2826C15.4222 20.2267 15.4573 20.1762 15.501 20.1339C15.5448 20.0915 15.5965 20.0582 15.6532 20.0359C15.7098 20.0135 15.7703 20.0025 15.8313 20.0036ZM9.5 16.1879C9.50017 16.0637 9.5496 15.9445 9.63748 15.8567C9.72535 15.7688 9.84448 15.7193 9.96875 15.7192H30.5938C30.7181 15.7192 30.8373 15.7686 30.9252 15.8565C31.0131 15.9444 31.0625 16.0636 31.0625 16.1879C31.0625 16.3123 31.0131 16.4315 30.9252 16.5194C30.8373 16.6073 30.7181 16.6567 30.5938 16.6567H9.96875C9.84443 16.6567 9.7252 16.6073 9.63729 16.5194C9.54939 16.4315 9.5 16.3123 9.5 16.1879ZM7.13688 26.4692H5.57438V19.1673C5.57438 18.9601 5.65669 18.7614 5.8032 18.6149C5.94971 18.4684 6.14842 18.3861 6.35563 18.3861C6.56283 18.3861 6.76154 18.4684 6.90805 18.6149C7.05456 18.7614 7.13688 18.9601 7.13688 19.1673V26.4692ZM30.9656 18.1654L26.7319 23.3061C26.4161 23.6577 26.0151 23.922 25.5675 24.0736L19.8175 26.0161C19.3323 26.1798 18.811 26.2045 18.3125 26.0873L12.6325 24.7504C12.1577 24.6384 11.661 24.6618 11.1987 24.8179L8.07375 25.8711V19.5473L11.9375 17.5967H17.6925C17.8836 17.6023 18.0651 17.6821 18.1983 17.8193C18.3315 17.9565 18.4061 18.1401 18.4061 18.3314C18.4061 18.5226 18.3315 18.7063 18.1983 18.8435C18.0651 18.9806 17.8836 19.0605 17.6925 19.0661H13.2675C13.1432 19.0661 13.024 19.1154 12.936 19.2033C12.8481 19.2913 12.7987 19.4105 12.7987 19.5348C12.7987 19.6591 12.8481 19.7784 12.936 19.8663C13.024 19.9542 13.1432 20.0036 13.2675 20.0036H14.5094C14.4364 20.211 14.4134 20.4327 14.4421 20.6507C14.4707 20.8687 14.5503 21.0769 14.6744 21.2585C14.7985 21.44 14.9636 21.5898 15.1563 21.6957C15.349 21.8015 15.564 21.8606 15.7837 21.8679L24.3512 22.1573C24.458 22.1611 24.5629 22.128 24.6481 22.0636L30.5 17.6786C30.5663 17.6281 30.6488 17.6039 30.7318 17.6104C30.8149 17.617 30.8926 17.6539 30.9501 17.7142C31.0076 17.7744 31.0409 17.8537 31.0437 17.937C31.0464 18.0202 31.0184 18.1015 30.965 18.1654H30.9656Z" fill="#1E1C1B"></path><path d="M21.8434 6.80125V6.15625C21.8434 5.74185 21.6787 5.34442 21.3857 5.0514C21.0927 4.75837 20.6953 4.59375 20.2809 4.59375C19.8665 4.59375 19.469 4.75837 19.176 5.0514C18.883 5.34442 18.7184 5.74185 18.7184 6.15625V6.80125C16.9827 7.12553 15.3886 7.97518 14.1517 9.23523C12.9148 10.4953 12.0948 12.1049 11.8027 13.8462H28.759C28.4669 12.1049 27.647 10.4953 26.4101 9.23523C25.1732 7.97518 23.579 7.12553 21.8434 6.80125ZM17.9996 9.03875C17.2314 9.35106 16.5489 9.84241 16.009 10.4719C15.9689 10.5186 15.92 10.557 15.8651 10.5848C15.8101 10.6127 15.7502 10.6294 15.6888 10.6341C15.6274 10.6388 15.5657 10.6314 15.5072 10.6122C15.4487 10.5931 15.3945 10.5626 15.3477 10.5225C15.301 10.4824 15.2626 10.4335 15.2348 10.3786C15.2069 10.3236 15.1902 10.2638 15.1855 10.2024C15.1808 10.141 15.1882 10.0792 15.2074 10.0207C15.2265 9.96217 15.257 9.90799 15.2971 9.86125C15.9349 9.11837 16.7408 8.53836 17.6477 8.16938C17.763 8.12271 17.8921 8.12376 18.0066 8.17229C18.1212 8.22081 18.2117 8.31284 18.2584 8.42813C18.305 8.54341 18.304 8.67251 18.2554 8.78703C18.2069 8.90154 18.1149 8.99209 17.9996 9.03875ZM20.9046 6.68188C20.6984 6.66688 20.4896 6.65875 20.2796 6.65875C20.0696 6.65875 19.8609 6.66688 19.6546 6.68188V6.15625C19.6546 5.99049 19.7205 5.83152 19.8377 5.71431C19.9549 5.5971 20.1138 5.53125 20.2796 5.53125C20.4454 5.53125 20.6043 5.5971 20.7215 5.71431C20.8388 5.83152 20.9046 5.99049 20.9046 6.15625V6.68188Z" fill="#E80F1F"></path></svg>