<svg xmlns="http://www.w3.org/2000/svg" width="32" height="32" viewBox="0 0 32 32" fill="none"><g clip-path="url(#clip0_519_860)"><path d="M30.5938 15.4375H1.40625C1.03329 15.4375 0.675604 15.5857 0.411881 15.8494C0.148158 16.1131 0 16.4708 0 16.8438C0 17.2167 0.148158 17.5744 0.411881 17.8381C0.675604 18.1018 1.03329 18.25 1.40625 18.25H1.97438C2.33156 20.4033 3.18076 22.4451 4.45589 24.2166C5.73103 25.9881 7.39771 27.4415 9.32625 28.4638C8.88508 29.4262 8.65656 30.4725 8.65625 31.5312C8.65625 31.6556 8.70564 31.7748 8.79354 31.8627C8.88145 31.9506 9.00068 32 9.125 32H22.875C22.9993 32 23.1185 31.9506 23.2065 31.8627C23.2944 31.7748 23.3438 31.6556 23.3438 31.5312C23.3434 30.4725 23.1149 29.4262 22.6737 28.4638C24.6023 27.4415 26.269 25.9881 27.5441 24.2166C28.8192 22.4451 29.6684 20.4033 30.0256 18.25H30.5938C30.9667 18.25 31.3244 18.1018 31.5881 17.8381C31.8518 17.5744 32 17.2167 32 16.8438C32 16.4708 31.8518 16.1131 31.5881 15.8494C31.3244 15.5857 30.9667 15.4375 30.5938 15.4375ZM9.61125 31.0625C9.67045 30.2509 9.88363 29.4581 10.2394 28.7262H21.7606C22.1164 29.4581 22.3295 30.2509 22.3888 31.0625H9.61125ZM21.9375 27.7887H10.0656C7.54375 26.531 5.48732 24.5037 4.19375 22H27.8062C26.5135 24.5032 24.4582 26.5305 21.9375 27.7887ZM28.2431 21.0625H3.75688C3.37658 20.1587 3.09819 19.2154 2.92688 18.25H29.0731C28.9018 19.2154 28.6234 20.1587 28.2431 21.0625ZM30.5938 17.3125H1.40625C1.28193 17.3125 1.1627 17.2631 1.07479 17.1752C0.986886 17.0873 0.9375 16.9681 0.9375 16.8438C0.9375 16.7194 0.986886 16.6002 1.07479 16.5123C1.1627 16.4244 1.28193 16.375 1.40625 16.375H30.5938C30.7181 16.375 30.8373 16.4244 30.9252 16.5123C31.0131 16.6002 31.0625 16.7194 31.0625 16.8438C31.0625 16.9681 31.0131 17.0873 30.9252 17.1752C30.8373 17.2631 30.7181 17.3125 30.5938 17.3125Z" fill="#1E1C1B"></path><path d="M24.1255 10.75C22.9761 10.7515 21.8563 11.1144 20.9245 11.7874C19.9928 12.4604 19.2963 13.4093 18.9336 14.5H20.9061C21.2173 13.9167 21.6811 13.4289 22.2481 13.0888C22.815 12.7486 23.4637 12.569 24.1248 12.569C24.786 12.569 25.4347 12.7486 26.0016 13.0888C26.5686 13.4289 27.0324 13.9167 27.3436 14.5H29.3161C28.9535 13.4095 28.2572 12.4607 27.3257 11.7877C26.3942 11.1148 25.2746 10.7517 24.1255 10.75Z" fill="#E80F1F"></path><path d="M24.1248 13.5059C23.7234 13.5058 23.3269 13.5949 22.9642 13.7669C22.6014 13.9389 22.2814 14.1894 22.0273 14.5002H26.2223C25.9683 14.1894 25.6483 13.9389 25.2855 13.7669C24.9228 13.5949 24.5263 13.5058 24.1248 13.5059Z" fill="#E80F1F"></path><path d="M6.54883 14.5H7.89133V13.5625H7.87445C7.58377 13.5629 7.30033 13.6532 7.063 13.8211C6.82567 13.9889 6.64607 14.2261 6.54883 14.5Z" fill="#E80F1F"></path><path d="M3.68359 14.5H5.57859C5.68742 13.971 5.97528 13.4957 6.39366 13.1541C6.81205 12.8126 7.33538 12.6257 7.87547 12.625H7.89234V10.75H7.87547C6.83823 10.7514 5.83777 11.1344 5.06472 11.826C4.29167 12.5175 3.80007 13.4693 3.68359 14.5Z" fill="#E80F1F"></path><path d="M16.3301 13.4268V14.4999H17.5063C17.4225 14.2331 17.2695 13.9932 17.0629 13.8047C16.8563 13.6162 16.6035 13.4858 16.3301 13.4268Z" fill="#E80F1F"></path><path d="M16.3301 10.6787V12.4768C16.7224 12.5292 17.0968 12.6732 17.4231 12.8972C17.7494 13.1212 18.0184 13.4189 18.2082 13.7662C18.4577 13.1663 18.797 12.6078 19.2145 12.11C18.4751 11.2768 17.4408 10.7636 16.3301 10.6787Z" fill="#E80F1F"></path><path d="M19.8688 11.4379C20.5673 10.8151 21.3938 10.3528 22.2901 10.0835C21.5801 9.16838 20.679 8.41922 19.6496 7.88833C18.6202 7.35744 17.4873 7.05761 16.3301 7.00977V9.74102C17.6853 9.82565 18.9544 10.4342 19.8688 11.4379Z" fill="#E80F1F"></path><path d="M31.8587 0.133223C31.8139 0.0897685 31.7608 0.0556318 31.7027 0.032783C31.6445 0.0099341 31.5825 -0.0011745 31.52 9.82054e-05L5.27 0.625098C5.14769 0.628194 5.03143 0.678923 4.94597 0.76648C4.86051 0.854037 4.81262 0.971501 4.8125 1.09385V1.8751H32V0.468848C32.0001 0.406306 31.9876 0.344384 31.9633 0.286739C31.9391 0.229094 31.9035 0.176894 31.8587 0.133223Z" fill="#E80F1F"></path><path d="M15.3926 2.8125H13.9863V14.5H15.3926V2.8125Z" fill="#E80F1F"></path><path d="M13.0488 2.8125H11.1738V14.5H13.0488V2.8125Z" fill="#E80F1F"></path><path d="M10.2363 2.8125H8.83008V14.5H10.2363V2.8125Z" fill="#E80F1F"></path><path d="M4.8125 3.59375C4.81262 3.7161 4.86051 3.83356 4.94597 3.92112C5.03143 4.00868 5.14769 4.0594 5.27 4.0625L7.895 4.125V2.8125H4.8125V3.59375Z" fill="#E80F1F"></path><path d="M16.3301 4.32562L31.5207 4.6875H31.532C31.5935 4.68758 31.6545 4.67551 31.7114 4.65199C31.7683 4.62846 31.8201 4.59393 31.8636 4.55039C31.9071 4.50685 31.9417 4.45514 31.9652 4.39823C31.9887 4.34132 32.0008 4.28033 32.0007 4.21875V2.8125H16.3301V4.32562Z" fill="#E80F1F"></path></g><defs><clipPath id="clip0_519_860"><rect width="32" height="32" fill="white"></rect></clipPath></defs></svg>